<?xml version="1.0" encoding="UTF-8" standalone="no"?>
<!-- Created with Inkscape (http://www.inkscape.org/) -->

<svg
   xmlns:dc="http://purl.org/dc/elements/1.1/"
   xmlns:cc="http://creativecommons.org/ns#"
   xmlns:rdf="http://www.w3.org/1999/02/22-rdf-syntax-ns#"
   xmlns:svg="http://www.w3.org/2000/svg"
   xmlns="http://www.w3.org/2000/svg"
   xmlns:sodipodi="http://sodipodi.sourceforge.net/DTD/sodipodi-0.dtd"
   xmlns:inkscape="http://www.inkscape.org/namespaces/inkscape"
   version="1.1"
   width="102"
   height="102"
   id="svg2"
   inkscape:version="0.48.5 r10040"
   sodipodi:docname="papageorge.svg">
  <sodipodi:namedview
     pagecolor="#ffffff"
     bordercolor="#666666"
     borderopacity="1"
     objecttolerance="10"
     gridtolerance="10"
     guidetolerance="10"
     inkscape:pageopacity="0"
     inkscape:pageshadow="2"
     inkscape:window-width="1600"
     inkscape:window-height="798"
     id="namedview7"
     showgrid="false"
     inkscape:zoom="4.627451"
     inkscape:cx="42.915029"
     inkscape:cy="53.996352"
     inkscape:window-x="0"
     inkscape:window-y="31"
     inkscape:window-maximized="1"
     inkscape:current-layer="svg2" />
  <defs
     id="defs4" />
  <metadata
     id="metadata7">
    <rdf:RDF>
      <cc:Work
         rdf:about="">
        <dc:format>image/svg+xml</dc:format>
        <dc:type
           rdf:resource="http://purl.org/dc/dcmitype/StillImage" />
        <dc:title />
      </cc:Work>
    </rdf:RDF>
  </metadata>
  <path
     id="path2984-0-4"
     style="fill:none;stroke:#000000;stroke-width:3;stroke-linecap:butt;stroke-linejoin:miter;stroke-miterlimit:4;stroke-opacity:0.53333285;stroke-dasharray:none"
     d="m 82.732518,94.491528 c 0,-7.34746 2.16102,-28.093222 -15.55932,-34.792375 3.11639,-3.603328 4.79613,-6.071247 4.58119,-11.887185 -0.21495,-5.815938 -2.99133,-9.735391 -8.90322,-12.96451 1.41552,-1.086341 2.79242,-4.058196 2.79242,-7.141875 0,-3.083679 -2.42038,-11.010668 -11.83387,-11.010668 -9.41349,0 -11.83386,7.926989 -11.83386,11.010668 0,3.083679 1.3769,6.055534 2.79242,7.141875 -5.91189,3.229119 -8.688269,7.148572 -8.903219,12.96451 -0.21494,5.815938 1.4648,8.283857 4.581189,11.887185 -17.720339,6.699153 -15.559329,27.444915 -15.559329,34.792375 z"
     inkscape:connector-curvature="0"
     sodipodi:nodetypes="ccscscscsccc" />
  <path
     id="path2984-0"
     style="fill:#222222;stroke:#ffffcc;stroke-width:3;stroke-linecap:butt;stroke-linejoin:miter;stroke-opacity:1;stroke-miterlimit:4;stroke-dasharray:none"
     d="m 81.038136,92.491525 c 0,-7.347458 2.161017,-28.093219 -15.559322,-34.792372 3.116391,-3.603328 4.796126,-6.071247 4.581183,-11.887185 -0.214943,-5.815938 -2.991322,-9.735391 -8.903217,-12.96451 1.415517,-1.086341 2.792425,-4.058196 2.792425,-7.141875 0,-3.083679 -2.420379,-11.010668 -11.833872,-11.010668 -9.413494,0 -11.833864,7.926989 -11.833864,11.010668 0,3.083679 1.3769,6.055534 2.79242,7.141875 -5.91189,3.229119 -8.68827,7.148572 -8.90322,12.96451 -0.21494,5.815938 1.4648,8.283857 4.58119,11.887185 -17.72034,6.699153 -15.55933,27.444914 -15.55933,34.792375 z"
     inkscape:connector-curvature="0"
     sodipodi:nodetypes="ccscscscsccc" />
</svg>
